<svg width="24" height="24" viewBox="0 0 24 24" fill="none" xmlns="http://www.w3.org/2000/svg">
<g id="Iconly/Curved/Edit Square">
<g id="Edit Square">
<path id="Stroke 1" d="M12.0002 2.75009C5.06318 2.75009 2.75018 5.06309 2.75018 12.0001C2.75018 18.9371 5.06318 21.2501 12.0002 21.2501C18.9372 21.2501 21.2502 18.9371 21.2502 12.0001" stroke="#130F26" stroke-width="1.5" stroke-linecap="round" stroke-linejoin="round"/>
<path id="Stroke 3" fill-rule="evenodd" clip-rule="evenodd" d="M19.5285 4.30379V4.30379C18.5355 3.42479 17.0185 3.51679 16.1395 4.50979C16.1395 4.50979 11.7705 9.44479 10.2555 11.1578C8.73846 12.8698 9.85046 15.2348 9.85046 15.2348C9.85046 15.2348 12.3545 16.0278 13.8485 14.3398C15.3435 12.6518 19.7345 7.69279 19.7345 7.69279C20.6135 6.69979 20.5205 5.18279 19.5285 4.30379Z" stroke="#130F26" stroke-width="1.5" stroke-linecap="round" stroke-linejoin="round"/>
<path id="Stroke 5" d="M15.009 5.80078L18.604 8.98378" stroke="#130F26" stroke-width="1.5" stroke-linecap="round" stroke-linejoin="round"/>
</g>
</g>
</svg>
